<?xml version="1.0" encoding="UTF-8"?>
<svg id="Layer_2" data-name="Layer 2" xmlns="http://www.w3.org/2000/svg" viewBox="0 0 220.74 65.72">
  <defs>
    <style>
      .cls-1, .cls-2 {
        fill: #501ea1;
      }

      .cls-2 {
        font-size: 20.92px;
        letter-spacing: .5em;
      }

      .cls-2, .cls-3 {
        font-family: Antonio-Bold, Antonio;
        font-weight: 700;
      }

      .cls-4 {
        letter-spacing: .3em;
      }

      .cls-5 {
        letter-spacing: .3em;
      }

      .cls-3 {
        fill: #fff;
        font-size: 15.11px;
      }

      .cls-6 {
        letter-spacing: .3em;
      }
    </style>
  </defs>
  <g id="OBJECTS">
    <g>
      <text class="cls-2" transform="translate(81.22 31.36)"><tspan x="0" y="0">PODCAST</tspan></text>
      <g>
        <path class="cls-1" d="M71.51,34.44C71.51,15.69,55.71,.39,36.13,0h0c-.13,0-.25,0-.38,0-.13,0-.25,0-.38,0h0C15.8,.39,0,15.69,0,34.44v19.91c0,6.28,5.34,11.37,11.93,11.37h4.86c3.33,0,6.04-2.58,6.04-5.75v-11.86c0-3.18-2.7-5.75-6.04-5.75H8.23v-7.91c0-14.54,12.32-26.39,27.53-26.59,15.21,.19,27.53,12.04,27.53,26.59v7.91h-8.57c-3.33,0-6.04,2.58-6.04,5.75v11.86c0,3.18,2.7,5.75,6.04,5.75h4.86c6.59,0,11.93-5.09,11.93-11.37v-9.85h0v-10.06Z"/>
        <rect class="cls-1" x="19.16" y="25.66" width="1.55" height="13.88" rx=".62" ry=".62"/>
        <rect class="cls-1" x="17.76" y="34.38" width="4.33" height="1.77" rx=".75" ry=".75"/>
        <rect class="cls-1" x="24.58" y="20.21" width="1.55" height="18.15" rx=".63" ry=".63"/>
        <rect class="cls-1" x="23.18" y="29.28" width="4.33" height="1.77" rx=".75" ry=".75"/>
        <rect class="cls-1" x="29.99" y="11.96" width="1.55" height="22.86" rx=".63" ry=".63"/>
        <rect class="cls-1" x="28.6" y="21.89" width="4.33" height="1.77" rx=".75" ry=".75"/>
        <rect class="cls-1" x="35.41" y="14.97" width="1.55" height="25.75" rx=".62" ry=".62"/>
        <rect class="cls-1" x="34.02" y="35.56" width="4.33" height="1.77" rx=".75" ry=".75"/>
        <rect class="cls-1" x="40.83" y="13.09" width="1.55" height="24.08" rx=".62" ry=".62"/>
        <rect class="cls-1" x="39.44" y="17.06" width="4.33" height="1.77" rx=".75" ry=".75"/>
        <rect class="cls-1" x="46.25" y="18.24" width="1.55" height="20.12" rx=".62" ry=".62"/>
        <rect class="cls-1" x="44.85" y="25.43" width="4.33" height="1.77" rx=".75" ry=".75"/>
        <rect class="cls-1" x="51.67" y="26.66" width="1.55" height="12.87" rx=".62" ry=".62"/>
        <rect class="cls-1" x="50.27" y="31.35" width="4.33" height="1.77" rx=".75" ry=".75"/>
      </g>
      <g>
        <rect class="cls-1" x="82.56" y="39.54" width="81.17" height="17.66"/>
        <text class="cls-3" transform="translate(85.69 54.89)"><tspan class="cls-5" x="0" y="0">TR</tspan><tspan class="cls-4" x="21.7" y="0">A</tspan><tspan class="cls-6" x="33.39" y="0">CKER</tspan></text>
      </g>
    </g>
  </g>
</svg>